<svg xmlns="http://www.w3.org/2000/svg" width="24" height="24" viewBox="0 0 24 24">
  <g id="letter" transform="translate(0 -12.024)">
    <path id="Path_645" data-name="Path 645" d="M11.56,135.627l2.124,2.107v-2.988Z" transform="translate(-11.018 -115.675)"/>
    <path id="Path_646" data-name="Path 646" d="M457.255,135.627l-2.124-.881v2.988Z" transform="translate(-433.797 -115.675)"/>
    <path id="Path_647" data-name="Path 647" d="M102.725,12.9a.881.881,0,0,0-.88-.88h-14.1a.881.881,0,0,0-.88.88v10.6L91.44,28.04l2.9-2.459a.7.7,0,0,1,.909,0l2.9,2.459,4.571-4.534V12.9Zm-4.013,9.147H90.882a.7.7,0,0,1,0-1.406h7.831a.7.7,0,0,1,0,1.406Zm0-3.772H90.882a.7.7,0,0,1,0-1.406h7.831a.7.7,0,0,1,0,1.406Z" transform="translate(-82.797)"/>
    <path id="Path_648" data-name="Path 648" d="M0,184.335V198.25l7.566-6.41Z" transform="translate(0 -163.04)"/>
    <path id="Path_649" data-name="Path 649" d="M350.594,191.84l7.566,6.41V184.335Z" transform="translate(-334.16 -163.04)"/>
    <path id="Path_650" data-name="Path 650" d="M36.7,303.624,25.91,312.762H47.481Z" transform="translate(-24.695 -276.738)"/>
  </g>
</svg>
