<svg xmlns="http://www.w3.org/2000/svg" width="24" height="24" viewBox="0 0 24 24">
  <g id="map" transform="translate(0 -0.5)">
    <path id="Path_651" data-name="Path 651" d="M32.717,272.066H31.64a.707.707,0,0,0-.649.427l-2.979,6.938,7.076-3.614a33.371,33.371,0,0,1-2.371-3.751Zm0,0" transform="translate(-26.699 -258.836)"/>
    <path id="Path_652" data-name="Path 652" d="M181.757,272.494a.707.707,0,0,0-.649-.427h-1.076a37.752,37.752,0,0,1-4.384,6.318,2.122,2.122,0,0,1-3.2,0c-.086-.1-.536-.62-1.157-1.422l-1.276.652,4.826,4.816,9.144-4.74Zm0,0" transform="translate(-162.05 -258.837)"/>
    <path id="Path_653" data-name="Path 653" d="M.443,407.975l-.385.9a.7.7,0,0,0,.649.982H11.068a2.858,2.858,0,0,1,.413-.226L6.649,404.8Zm0,0" transform="translate(0 -385.353)"/>
    <path id="Path_654" data-name="Path 654" d="M310.822,423.1l-1.446-3.367-8.388,4.348h9.185a.7.7,0,0,0,.649-.982Zm0,0" transform="translate(-286.879 -399.583)"/>
    <path id="Path_655" data-name="Path 655" d="M242.354,121.5a.706.706,0,1,0-.706.7A.706.706,0,0,0,242.354,121.5Zm0,0" transform="translate(-229.648 -114.658)"/>
    <path id="Path_656" data-name="Path 656" d="M127.361,18.576c.238-.273,5.82-6.73,5.82-11.169,0-9.153-12.705-9.265-12.705,0,0,4.439,5.582,10.9,5.82,11.169a.707.707,0,0,0,1.065,0Zm-2.65-11.733a2.118,2.118,0,1,1,2.118,2.113A2.118,2.118,0,0,1,124.711,6.843Zm0,0" transform="translate(-114.829 0)"/>
  </g>
</svg>
