<svg xmlns="http://www.w3.org/2000/svg" width="24" height="24" viewBox="0 0 24 24">
  <g id="XMLID_7_" transform="translate(-4.219)">
    <path id="XMLID_8_" d="M173.666,48.1a7.257,7.257,0,0,0-6.424-6.915c-.071-.008-.148-.021-.23-.035a3.339,3.339,0,0,0-.544-.059.914.914,0,0,0-.979.821.948.948,0,0,0,.142.744,1.406,1.406,0,0,0,1.011.435c.1.014.2.027.274.045,3.209.717,4.289,1.844,4.817,5.025.013.078.019.174.025.275.023.38.071,1.171.922,1.171h0a1.511,1.511,0,0,0,.226-.018c.792-.12.767-.844.755-1.191a1.762,1.762,0,0,1,0-.252A.342.342,0,0,0,173.666,48.1Z" transform="translate(-148.602 -38.026)"/>
    <path id="XMLID_9_" d="M161.6,1.915c.1.007.185.013.26.025,5.269.81,7.692,3.307,8.363,8.616a3.1,3.1,0,0,1,.015.317c.007.415.021,1.278.947,1.3h.029a.909.909,0,0,0,.687-.261,1.451,1.451,0,0,0,.252-1.11c0-.088-.008-.172-.007-.245A10.738,10.738,0,0,0,162.092.015a.376.376,0,0,0-.066,0,.454.454,0,0,1-.064,0c-.054,0-.121,0-.191-.009S161.589,0,161.491,0a.954.954,0,0,0-1.049.98C160.393,1.826,161.212,1.886,161.6,1.915Z" transform="translate(-143.948)"/>
    <path id="XMLID_10_" d="M25.985,32.25c-.115-.086-.234-.174-.346-.261-.591-.463-1.22-.89-1.828-1.3l-.378-.257a3.839,3.839,0,0,0-2.142-.791,2.785,2.785,0,0,0-2.31,1.424,1.233,1.233,0,0,1-1.054.623,2.14,2.14,0,0,1-.848-.207A10.09,10.09,0,0,1,11.74,26.42c-.5-1.086-.336-1.8.538-2.373a2.4,2.4,0,0,0,1.354-2.106c-.074-1.326-3.082-5.318-4.349-5.771a2.534,2.534,0,0,0-1.679,0,4.828,4.828,0,0,0-3.024,2.42,4.388,4.388,0,0,0,.066,3.631A29.239,29.239,0,0,0,11.253,32a32.1,32.1,0,0,0,10.023,6.475,5.667,5.667,0,0,0,.991.287c.092.02.171.037.229.053a.4.4,0,0,0,.1.013h.031a5.668,5.668,0,0,0,4.722-3.5C27.94,33.7,26.856,32.9,25.985,32.25Z" transform="translate(0 -14.831)"/>
    <path id="XMLID_11_" d="M171.331,83.556a1.109,1.109,0,0,0-1.167.672.9.9,0,0,0,.037.782,1.171,1.171,0,0,0,.884.467,2.089,2.089,0,0,1,1.938,2.087.988.988,0,0,0,.94.975h0a.925.925,0,0,0,.112-.007c.6-.071.886-.51.86-1.3a3.723,3.723,0,0,0-1.162-2.519A3.466,3.466,0,0,0,171.331,83.556Z" transform="translate(-153.092 -77.328)"/>
  </g>
</svg>
